<svg version="1.1" id="Layer_1" xmlns="http://www.w3.org/2000/svg" xmlns:xlink="http://www.w3.org/1999/xlink" x="0px" y="0px"
	 width="100%" viewBox="0 0 489 502" enable-background="new 0 0 489 502" xml:space="preserve">
<path fill="#000000" opacity="1.000000" stroke="none" 
	d="
M295.000000,503.000000 
	C196.666687,503.000000 98.833382,503.000000 1.000052,503.000000 
	C1.000035,335.666718 1.000035,168.333466 1.000018,1.000142 
	C163.999893,1.000095 326.999786,1.000095 489.999756,1.000047 
	C489.999847,168.333191 489.999847,335.666382 489.999939,502.999786 
	C425.166656,503.000000 360.333344,503.000000 295.000000,503.000000 
M376.484009,136.083572 
	C376.284027,136.382446 376.084076,136.681335 375.189667,137.296310 
	C373.467651,137.483093 371.745636,137.669891 369.563812,137.195068 
	C365.921051,137.023285 361.839111,137.530869 362.777557,131.562347 
	C362.879944,130.911087 360.662201,129.274750 359.415619,129.150742 
	C355.997986,128.810745 352.524414,129.033508 348.499207,129.033508 
	C350.696289,122.092079 346.785522,122.073387 342.194458,122.161293 
	C332.257690,122.351570 322.314697,122.219894 311.953552,122.219894 
	C311.953552,119.643761 311.953552,117.567688 311.953552,115.265030 
	C291.463470,115.265030 271.401550,115.265030 250.983780,115.265030 
	C250.983780,117.624245 250.983780,119.754387 250.051712,121.982727 
	C240.228409,121.987274 230.396561,122.236206 220.585449,121.892815 
	C215.712753,121.722275 214.235153,123.503510 214.717560,128.747284 
	C206.327026,128.842590 197.936600,128.953522 189.545853,129.022659 
	C187.338028,129.040863 184.784973,128.859070 185.105988,132.041260 
	C185.614792,137.084976 182.861206,137.507141 179.027664,135.969879 
	C179.027664,133.727005 179.027664,131.484131 179.027664,129.255325 
	C176.283112,129.061783 174.208420,128.915482 172.129333,128.768875 
	C171.939133,126.330009 171.778122,124.265320 171.599548,121.975479 
	C168.947083,121.975479 166.670609,121.975479 164.040619,121.975479 
	C163.672470,117.639618 163.323822,113.533501 163.039108,110.180344 
	C160.687088,109.011635 158.747726,108.047989 156.951416,106.137207 
	C156.971024,86.721573 157.010727,67.305893 156.966675,47.890396 
	C156.963608,46.543068 156.337524,45.197151 155.503830,43.156803 
	C152.348557,43.117065 149.174301,43.279839 146.042786,42.986500 
	C142.098801,42.617054 140.887115,44.056934 140.915970,48.055706 
	C141.088623,71.987907 140.999146,95.921974 141.013779,119.855408 
	C141.014374,120.814857 141.178299,121.774208 141.296524,123.065933 
	C143.644363,123.065933 145.779907,123.065933 148.018051,123.983757 
	C148.018051,128.544983 148.018051,133.106201 148.018051,137.722595 
	C150.641922,137.888962 152.713150,138.020294 154.975174,138.163727 
	C155.113632,140.508133 155.235825,142.576950 155.368027,144.815247 
	C157.758255,144.815247 159.867722,144.815247 162.645264,145.189560 
	C162.405853,147.071503 162.166458,148.953430 161.060623,150.980759 
	C159.469589,150.980759 157.878571,150.980759 156.246857,150.980759 
	C156.045242,153.656036 155.888397,155.737167 155.699783,158.239960 
	C152.982956,158.239960 150.570541,158.239960 147.851776,158.239960 
	C148.736115,163.789932 147.391571,167.223724 141.758865,166.192657 
	C138.746536,171.197937 146.554947,181.567047 133.057800,180.160263 
	C133.057800,190.775436 133.112549,201.046112 133.001373,211.315002 
	C132.983795,212.938019 132.216995,214.552933 130.953812,216.007431 
	C129.376251,216.007431 127.798683,216.007431 126.486473,216.007431 
	C126.486473,239.977798 126.486473,263.377502 126.206108,288.221497 
	C126.295815,298.339172 126.385521,308.456818 126.510498,318.554047 
	C126.499893,318.873230 126.488159,319.151093 126.202454,320.787262 
	C126.220894,324.422211 126.239334,328.057129 126.099007,331.496735 
	C126.099007,331.496735 126.257698,331.301300 126.154404,332.356842 
	C126.251083,338.552612 126.347755,344.748413 126.456833,351.050140 
	C126.462715,355.382263 126.211342,359.739563 126.631264,364.031158 
	C126.757195,365.318237 128.755417,366.422089 131.130280,367.853210 
	C131.829498,369.300934 133.068832,370.725586 133.131927,372.200531 
	C133.370667,377.782135 133.227936,383.380066 133.227936,389.185455 
	C135.664490,389.545868 137.601166,389.832336 140.255722,390.225037 
	C140.255722,394.526550 140.255722,398.919891 140.255722,403.429657 
	C143.213318,403.702026 145.467407,403.909637 147.650833,404.110718 
	C148.652878,411.908569 148.652878,411.908569 154.973709,411.494995 
	C155.302139,413.889038 155.632004,416.293610 156.004089,419.005981 
	C158.477219,419.005981 160.581665,419.005981 162.616211,419.005981 
	C163.760376,425.687775 163.760376,425.687042 170.762787,425.685150 
	C175.519196,425.683838 180.275604,425.684906 184.898529,425.684906 
	C185.252472,428.513306 185.495483,430.455231 185.742783,432.431396 
	C217.887405,432.431396 249.738983,432.431396 281.643555,432.431396 
	C281.818237,430.062744 281.961487,428.120300 282.092621,426.342560 
	C282.718445,426.063660 283.011139,425.822357 283.307556,425.817749 
	C287.800964,425.747070 292.294800,425.698059 296.788666,425.662659 
	C304.121826,425.604980 304.121857,425.610748 305.209900,418.512848 
	C310.882721,418.897949 310.882721,418.897949 312.624939,411.804321 
	C317.916504,412.745239 319.333801,410.047638 318.789185,405.226074 
	C318.483643,402.521118 318.734192,399.753357 318.734192,397.101959 
	C321.533722,396.816040 323.480682,396.617188 325.563324,396.404480 
	C325.840057,394.100586 326.087372,392.041534 326.333374,389.993500 
	C328.848480,389.817719 330.966522,389.669678 333.306915,389.506134 
	C333.602295,387.233337 333.870850,385.166962 334.146637,383.044800 
	C336.368011,382.825073 338.299286,382.634033 340.804718,382.386230 
	C340.804718,378.887878 340.878326,375.598785 340.782867,372.314575 
	C340.696991,369.359161 341.507690,367.311707 344.950500,367.671082 
	C348.242249,368.014679 348.895660,366.232361 348.776245,363.445404 
	C348.643250,360.340759 348.745789,357.226013 348.745789,354.144562 
	C351.486511,353.740448 353.546112,353.436768 356.114319,353.058105 
	C356.114319,345.795929 356.114319,338.890045 356.114319,332.055450 
	C363.752747,331.512177 363.744843,331.512207 363.717804,324.172516 
	C363.701630,319.779205 363.714813,315.385803 363.714813,310.604950 
	C370.258911,311.915375 371.281555,308.849060 370.842438,304.206085 
	C370.597351,301.614807 370.798370,298.981323 370.798370,297.465759 
	C373.624481,296.598938 375.630402,295.983673 377.725861,295.557495 
	C377.725861,295.557495 377.404358,295.724182 377.625397,294.717651 
	C377.664612,283.464752 377.703827,272.211853 378.404694,260.780853 
	C380.555450,260.164307 382.706177,259.547760 384.974884,258.009644 
	C384.972748,252.790833 384.740173,247.555710 385.108002,242.363113 
	C385.219238,240.792664 386.993622,239.340012 388.880615,237.978241 
	C391.111176,238.304138 392.109192,237.659485 392.045868,235.092926 
	C391.873383,228.101791 392.004242,221.103287 392.007507,214.107697 
	C392.011658,205.154999 392.008514,196.202301 392.008514,187.205078 
	C389.653870,187.205078 387.843536,187.205078 385.262817,186.742645 
	C385.262817,179.662491 385.262817,172.582352 385.262817,165.102692 
	C382.333984,165.102692 380.264679,165.102692 378.251434,165.102692 
	C377.782745,162.960312 377.402100,161.220474 378.017944,159.744049 
	C380.285187,159.744049 382.552429,159.744049 384.791565,159.744049 
	C384.975159,157.238632 385.128143,155.150940 385.276794,153.122025 
	C392.901489,152.747849 392.901428,152.747849 392.900604,145.153946 
	C392.900330,142.874466 392.900543,140.594971 392.900543,138.075348 
	C395.500793,137.957352 397.568665,137.863525 399.967346,137.754684 
	C399.967346,131.936462 400.116211,126.476364 399.913025,121.029411 
	C399.785736,117.616859 400.456543,115.544907 404.487915,115.880165 
	C405.296814,115.947449 406.217072,114.676399 407.723816,113.636574 
	C407.723816,107.505127 407.723816,101.373680 407.723816,95.291939 
	C410.048187,95.075310 411.515564,94.938553 413.844360,94.871376 
	C414.218292,94.112991 414.912598,93.356125 414.916199,92.595985 
	C414.948853,85.723877 414.860565,78.851189 414.956604,71.089325 
	C414.956604,69.161430 414.956604,67.233536 414.956604,65.307068 
	C409.363586,65.307068 404.301239,65.307068 398.892822,65.307068 
	C398.892822,70.088379 398.892822,74.560501 399.019958,79.028656 
	C399.019958,79.028656 399.017822,78.901489 398.112854,79.007622 
	C396.195862,79.007622 394.278870,79.007622 392.155823,79.007622 
	C392.155823,88.321579 392.155823,97.168961 392.015564,106.424828 
	C392.015564,106.424828 391.992432,106.856110 391.480896,107.075142 
	C391.288269,107.381371 391.095612,107.687592 390.114563,108.024277 
	C384.339142,108.473869 383.167999,111.996902 383.957153,117.012657 
	C384.209473,118.616524 383.962036,120.299011 383.049774,122.013008 
	C381.150757,122.013008 379.251740,122.013008 376.912506,122.013008 
	C376.912506,126.973213 376.912506,131.502228 377.020874,136.015762 
	C377.020874,136.015762 377.006775,135.907211 376.484009,136.083572 
z"/>
<path fill="#FC0101" opacity="1.000000" stroke="none" 
	d="
M126.444427,350.944183 
	C126.347755,344.748413 126.251083,338.552612 126.320953,331.826599 
	C126.487495,331.296356 126.546028,331.598907 126.546028,331.598907 
	C126.546028,331.598907 126.257774,331.692078 126.257774,331.692078 
	C126.239334,328.057129 126.220894,324.422211 126.556671,320.457642 
	C126.834869,320.269348 126.775253,320.423553 126.677475,320.547729 
	C126.602547,320.642944 126.479492,320.700256 126.377838,320.774445 
	C126.141441,319.798676 125.868774,318.828522 125.716171,317.839844 
	C125.697815,317.720917 126.330193,317.501587 126.660965,317.328766 
	C126.599052,317.744019 126.537148,318.159241 126.475235,318.574493 
	C126.385521,308.456818 126.295815,298.339172 126.579254,287.987274 
	C126.640099,287.929077 126.327805,288.105103 126.015511,288.281128 
	C125.876137,288.003296 125.614655,287.725372 125.614922,287.447693 
	C125.627167,274.801056 125.517693,262.150116 125.896065,249.513870 
	C125.938614,248.092819 128.738129,245.578903 130.287430,245.556824 
	C149.757065,245.279465 169.232391,245.313370 188.704346,245.485306 
	C189.998550,245.496719 192.394547,247.293549 192.373627,248.216812 
	C192.272095,252.697739 194.872131,252.871201 198.197678,252.856125 
	C214.009277,252.784378 229.821442,252.811493 245.633316,252.841095 
	C247.554092,252.844696 249.474457,253.075409 251.756836,253.224503 
	C250.654617,259.470306 253.854950,260.007721 258.608887,259.986816 
	C295.891022,259.822845 333.174255,259.882202 370.457001,259.951080 
	C372.886292,259.955566 375.314392,260.607941 377.743042,260.958954 
	C377.703827,272.211853 377.664612,283.464752 377.487732,295.130920 
	C377.350037,295.544189 377.636292,295.368408 377.636292,295.368408 
	C375.630402,295.983673 373.624481,296.598938 370.798370,297.465759 
	C370.798370,298.981323 370.597351,301.614807 370.842438,304.206085 
	C371.281555,308.849060 370.258911,311.915375 363.714813,310.604950 
	C363.714813,315.385803 363.701630,319.779205 363.717804,324.172516 
	C363.744843,331.512207 363.752747,331.512177 356.114319,332.055450 
	C356.114319,338.890045 356.114319,345.795929 356.114319,353.058105 
	C353.546112,353.436768 351.486511,353.740448 348.745789,354.144562 
	C348.745789,357.226013 348.643250,360.340759 348.776245,363.445404 
	C348.895660,366.232361 348.242249,368.014679 344.950500,367.671082 
	C341.507690,367.311707 340.696991,369.359161 340.782867,372.314575 
	C340.878326,375.598785 340.804718,378.887878 340.804718,382.386230 
	C338.299286,382.634033 336.368011,382.825073 334.146637,383.044800 
	C333.870850,385.166962 333.602295,387.233337 333.306915,389.506134 
	C330.966522,389.669678 328.848480,389.817719 326.333374,389.993500 
	C326.087372,392.041534 325.840057,394.100586 325.563324,396.404480 
	C323.480682,396.617188 321.533722,396.816040 318.734192,397.101959 
	C318.734192,399.753357 318.483643,402.521118 318.789185,405.226074 
	C319.333801,410.047638 317.916504,412.745239 312.624939,411.804321 
	C310.882721,418.897949 310.882721,418.897949 305.209900,418.512848 
	C304.121857,425.610748 304.121826,425.604980 296.788666,425.662659 
	C292.294800,425.698059 287.800964,425.747070 283.307556,425.817749 
	C283.011139,425.822357 282.718445,426.063660 282.092621,426.342560 
	C281.961487,428.120300 281.818237,430.062744 281.643555,432.431396 
	C249.738983,432.431396 217.887405,432.431396 185.742783,432.431396 
	C185.495483,430.455231 185.252472,428.513306 184.898529,425.684906 
	C180.275604,425.684906 175.519196,425.683838 170.762787,425.685150 
	C163.760376,425.687042 163.760376,425.687775 162.616211,419.005981 
	C160.581665,419.005981 158.477219,419.005981 156.004089,419.005981 
	C155.632004,416.293610 155.302139,413.889038 154.973709,411.494995 
	C148.652878,411.908569 148.652878,411.908569 147.650833,404.110718 
	C145.467407,403.909637 143.213318,403.702026 140.255722,403.429657 
	C140.255722,398.919891 140.255722,394.526550 140.255722,390.225037 
	C137.601166,389.832336 135.664490,389.545868 133.227936,389.185455 
	C133.227936,383.380066 133.370667,377.782135 133.131927,372.200531 
	C133.068832,370.725586 131.829498,369.300934 130.851379,367.769928 
	C129.133621,367.342072 126.466095,367.067871 126.441711,366.642242 
	C126.116951,360.975250 126.162521,355.287079 126.115814,349.604156 
	C126.296989,349.902222 126.508675,350.187561 126.641563,350.505798 
	C126.683746,350.606873 126.516075,350.795593 126.444427,350.944183 
z"/>
<path fill="#5FCDE3" opacity="1.000000" stroke="none" 
	d="
M388.006195,237.833405 
	C386.993622,239.340012 385.219238,240.792664 385.108002,242.363113 
	C384.740173,247.555710 384.972748,252.790833 384.487152,258.511993 
	C380.196655,258.725098 376.394470,258.193542 372.591064,258.184937 
	C342.599884,258.117126 312.608521,258.151306 282.617188,258.149170 
	C274.119812,258.148590 265.617920,258.267975 257.129547,257.986938 
	C255.730240,257.940613 253.376770,256.250946 253.208298,255.071655 
	C252.651505,251.173859 250.649841,250.207108 247.081390,250.231506 
	C231.420013,250.338654 215.757126,250.316360 200.095795,250.202820 
	C198.442352,250.190826 195.460190,249.461914 195.357849,248.743286 
	C194.572723,243.230042 190.623505,244.084381 187.016251,244.083160 
	C169.188156,244.077118 151.359619,244.007126 133.532349,244.126221 
	C129.818848,244.151001 127.489624,243.557571 127.509331,239.091400 
	C127.532761,233.785095 127.167038,228.464294 126.705605,223.172836 
	C126.358353,219.190598 127.725113,216.780945 131.796585,216.171585 
	C132.216995,214.552933 132.983795,212.938019 133.001373,211.315002 
	C133.112549,201.046112 133.057800,190.775436 133.057800,180.160263 
	C146.554947,181.567047 138.746536,171.197937 141.758865,166.192657 
	C147.391571,167.223724 148.736115,163.789932 147.851776,158.239960 
	C150.570541,158.239960 152.982956,158.239960 155.699783,158.239960 
	C155.888397,155.737167 156.045242,153.656036 156.246857,150.980759 
	C157.878571,150.980759 159.469589,150.980759 161.902588,151.006836 
	C166.507095,151.292694 170.267303,151.596466 174.032974,151.797897 
	C176.894791,151.950974 178.154251,150.569733 178.222122,147.637360 
	C178.305389,144.038620 178.760681,140.448471 179.055145,136.854614 
	C182.861206,137.507141 185.614792,137.084976 185.105988,132.041260 
	C184.784973,128.859070 187.338028,129.040863 189.545853,129.022659 
	C197.936600,128.953522 206.327026,128.842590 215.165314,128.099197 
	C216.976089,123.780769 219.672791,122.823151 223.434219,122.944992 
	C230.882141,123.186249 238.344681,123.079002 245.798553,122.956039 
	C247.532379,122.927437 249.255646,122.258705 250.983780,121.884521 
	C250.983780,119.754387 250.983780,117.624245 250.983780,115.265030 
	C271.401550,115.265030 291.463470,115.265030 311.953552,115.265030 
	C311.953552,117.567688 311.953552,119.643761 311.953552,122.219894 
	C322.314697,122.219894 332.257690,122.351570 342.194458,122.161293 
	C346.785522,122.073387 350.696289,122.092079 348.499207,129.033508 
	C352.524414,129.033508 355.997986,128.810745 359.415619,129.150742 
	C360.662201,129.274750 362.879944,130.911087 362.777557,131.562347 
	C361.839111,137.530869 365.921051,137.023285 369.736938,137.954407 
	C370.108002,142.389496 369.685547,145.394470 364.717041,145.057632 
	C363.951782,145.005753 362.536224,146.871872 362.323181,148.018494 
	C361.934662,150.109955 362.330322,152.333405 362.200714,154.489883 
	C362.008392,157.688950 363.378052,159.009842 366.587250,158.989685 
	C370.064178,158.967834 373.543304,159.301834 377.021484,159.480637 
	C377.402100,161.220474 377.782745,162.960312 378.251434,165.102692 
	C380.264679,165.102692 382.333984,165.102692 385.262817,165.102692 
	C385.262817,172.582352 385.262817,179.662491 385.970917,187.156601 
	C389.854767,187.847031 391.122040,189.373962 391.075348,192.747711 
	C390.896301,205.675110 391.134766,218.609238 390.864838,231.533478 
	C390.820557,233.652435 389.003784,235.734375 388.006195,237.833405 
M311.000275,177.500671 
	C311.000275,171.435516 311.000275,165.370361 311.000275,159.359726 
	C305.585175,159.359726 301.023041,159.359726 296.424377,159.359726 
	C296.424377,176.039993 296.424377,192.354355 296.424377,208.644211 
	C301.416687,208.644211 305.978271,208.644211 311.000763,208.644211 
	C311.000763,198.356949 311.000763,188.428711 311.000275,177.500671 
M222.988129,205.257477 
	C222.988129,190.033707 222.988129,174.809937 222.988129,159.412750 
	C217.712677,159.412750 213.033737,159.412750 208.311249,159.412750 
	C208.311249,176.020798 208.311249,192.213470 208.311249,208.971954 
	C212.549484,208.971954 216.504456,209.141403 220.424347,208.845734 
	C221.336761,208.776901 222.129837,207.125778 222.988129,205.257477 
z"/>
<path fill="#99E155" opacity="1.000000" stroke="none" 
	d="
M179.041412,136.412247 
	C178.760681,140.448471 178.305389,144.038620 178.222122,147.637360 
	C178.154251,150.569733 176.894791,151.950974 174.032974,151.797897 
	C170.267303,151.596466 166.507095,151.292694 162.335785,150.934143 
	C162.166458,148.953430 162.405853,147.071503 162.011887,144.823700 
	C159.236908,143.888535 156.738403,144.003128 157.137024,140.365738 
	C157.247772,139.355164 155.186432,137.392349 153.835342,137.071411 
	C149.981812,136.155960 148.866989,133.918564 148.926575,130.252808 
	C148.965424,127.863297 148.277695,125.461967 147.915451,123.065933 
	C145.779907,123.065933 143.644363,123.065933 141.296524,123.065933 
	C141.178299,121.774208 141.014374,120.814857 141.013779,119.855408 
	C140.999146,95.921974 141.088623,71.987907 140.915970,48.055706 
	C140.887115,44.056934 142.098801,42.617054 146.042786,42.986500 
	C149.174301,43.279839 152.348557,43.117065 155.581757,43.825588 
	C155.758636,63.418423 155.833786,82.342667 155.992447,101.266220 
	C156.008728,103.207733 156.524414,105.145065 156.808365,107.084335 
	C158.747726,108.047989 160.687088,109.011635 163.039108,110.180344 
	C163.323822,113.533501 163.672470,117.639618 164.040619,121.975479 
	C166.670609,121.975479 168.947083,121.975479 171.599548,121.975479 
	C171.778122,124.265320 171.939133,126.330009 172.129333,128.768875 
	C174.208420,128.915482 176.283112,129.061783 179.027664,129.255325 
	C179.027664,131.484131 179.027664,133.727005 179.041412,136.412247 
z"/>
<path fill="#98E253" opacity="1.000000" stroke="none" 
	d="
M377.519714,159.612335 
	C373.543304,159.301834 370.064178,158.967834 366.587250,158.989685 
	C363.378052,159.009842 362.008392,157.688950 362.200714,154.489883 
	C362.330322,152.333405 361.934662,150.109955 362.323181,148.018494 
	C362.536224,146.871872 363.951782,145.005753 364.717041,145.057632 
	C369.685547,145.394470 370.108002,142.389496 369.966858,138.285217 
	C371.745636,137.669891 373.467651,137.483093 375.757324,136.996506 
	C376.552246,136.433548 376.779541,136.170395 377.006775,135.907227 
	C377.006775,135.907211 377.020874,136.015762 377.229248,135.699921 
	C377.649170,132.635086 377.175415,129.563904 378.272217,127.231094 
	C379.292755,125.060310 381.986237,123.676041 383.943268,121.945526 
	C383.962036,120.299011 384.209473,118.616524 383.957153,117.012657 
	C383.167999,111.996902 384.339142,108.473869 390.724548,107.854210 
	C391.553864,107.408134 391.773132,107.132118 391.992432,106.856110 
	C391.992432,106.856110 392.015564,106.424828 392.288361,105.859428 
	C392.707550,100.501152 393.209747,95.685608 392.906250,90.921394 
	C392.561493,85.509460 392.821838,80.807373 399.017822,78.901489 
	C399.017822,78.901489 399.019958,79.028656 399.223785,78.709686 
	C399.643646,75.632225 399.643188,72.831833 400.165436,70.132568 
	C400.433990,68.744568 401.337952,66.848770 402.463806,66.363678 
	C408.149414,63.913879 413.017456,66.273972 414.807709,71.978676 
	C414.860565,78.851189 414.948853,85.723877 414.916199,92.595985 
	C414.912598,93.356125 414.218292,94.112991 413.079712,94.645035 
	C410.009644,94.274483 406.489624,92.623764 406.279785,96.315491 
	C405.946228,102.183563 406.758392,108.116768 407.085938,114.022415 
	C406.217072,114.676399 405.296814,115.947449 404.487915,115.880165 
	C400.456543,115.544907 399.785736,117.616859 399.913025,121.029411 
	C400.116211,126.476364 399.967346,131.936462 399.967346,137.754684 
	C397.568665,137.863525 395.500793,137.957352 392.900543,138.075348 
	C392.900543,140.594971 392.900330,142.874466 392.900604,145.153946 
	C392.901428,152.747849 392.901489,152.747849 385.276794,153.122025 
	C385.128143,155.150940 384.975159,157.238632 384.791565,159.744049 
	C382.552429,159.744049 380.285187,159.744049 377.519714,159.612335 
z"/>
<path fill="#999FAF" opacity="1.000000" stroke="none" 
	d="
M131.375198,216.089508 
	C127.725113,216.780945 126.358353,219.190598 126.705605,223.172836 
	C127.167038,228.464294 127.532761,233.785095 127.509331,239.091400 
	C127.489624,243.557571 129.818848,244.151001 133.532349,244.126221 
	C151.359619,244.007126 169.188156,244.077118 187.016251,244.083160 
	C190.623505,244.084381 194.572723,243.230042 195.357849,248.743286 
	C195.460190,249.461914 198.442352,250.190826 200.095795,250.202820 
	C215.757126,250.316360 231.420013,250.338654 247.081390,250.231506 
	C250.649841,250.207108 252.651505,251.173859 253.208298,255.071655 
	C253.376770,256.250946 255.730240,257.940613 257.129547,257.986938 
	C265.617920,258.267975 274.119812,258.148590 282.617188,258.149170 
	C312.608521,258.151306 342.599884,258.117126 372.591064,258.184937 
	C376.394470,258.193542 380.196655,258.725098 384.428162,258.972778 
	C382.706177,259.547760 380.555450,260.164307 378.073853,260.869904 
	C375.314392,260.607941 372.886292,259.955566 370.457001,259.951080 
	C333.174255,259.882202 295.891022,259.822845 258.608887,259.986816 
	C253.854950,260.007721 250.654617,259.470306 251.756836,253.224503 
	C249.474457,253.075409 247.554092,252.844696 245.633316,252.841095 
	C229.821442,252.811493 214.009277,252.784378 198.197678,252.856125 
	C194.872131,252.871201 192.272095,252.697739 192.373627,248.216812 
	C192.394547,247.293549 189.998550,245.496719 188.704346,245.485306 
	C169.232391,245.313370 149.757065,245.279465 130.287430,245.556824 
	C128.738129,245.578903 125.938614,248.092819 125.896065,249.513870 
	C125.517693,262.150116 125.627167,274.801056 125.614922,287.447693 
	C125.614655,287.725372 125.876137,288.003296 126.015511,288.281128 
	C126.327805,288.105103 126.640099,287.929077 126.719437,287.265137 
	C126.486473,263.377502 126.486473,239.977798 126.486473,216.007431 
	C127.798683,216.007431 129.376251,216.007431 131.375198,216.089508 
z"/>
<path fill="#ACD484" opacity="1.000000" stroke="none" 
	d="
M156.879883,106.610771 
	C156.524414,105.145065 156.008728,103.207733 155.992447,101.266220 
	C155.833786,82.342667 155.758636,63.418423 155.830429,44.172478 
	C156.337524,45.197151 156.963608,46.543068 156.966675,47.890396 
	C157.010727,67.305893 156.971024,86.721573 156.879883,106.610771 
z"/>
<path fill="#73CDDF" opacity="1.000000" stroke="none" 
	d="
M388.443420,237.905823 
	C389.003784,235.734375 390.820557,233.652435 390.864838,231.533478 
	C391.134766,218.609238 390.896301,205.675110 391.075348,192.747711 
	C391.122040,189.373962 389.854767,187.847031 386.356140,187.387817 
	C387.843536,187.205078 389.653870,187.205078 392.008514,187.205078 
	C392.008514,196.202301 392.011658,205.154999 392.007507,214.107697 
	C392.004242,221.103287 391.873383,228.101791 392.045868,235.092926 
	C392.109192,237.659485 391.111176,238.304138 388.443420,237.905823 
z"/>
<path fill="#A4D177" opacity="1.000000" stroke="none" 
	d="
M147.966751,123.524841 
	C148.277695,125.461967 148.965424,127.863297 148.926575,130.252808 
	C148.866989,133.918564 149.981812,136.155960 153.835342,137.071411 
	C155.186432,137.392349 157.247772,139.355164 157.137024,140.365738 
	C156.738403,144.003128 159.236908,143.888535 161.677841,144.636536 
	C159.867722,144.815247 157.758255,144.815247 155.368027,144.815247 
	C155.235825,142.576950 155.113632,140.508133 154.975174,138.163727 
	C152.713150,138.020294 150.641922,137.888962 148.018051,137.722595 
	C148.018051,133.106201 148.018051,128.544983 147.966751,123.524841 
z"/>
<path fill="#88C1D5" opacity="1.000000" stroke="none" 
	d="
M250.517746,121.933624 
	C249.255646,122.258705 247.532379,122.927437 245.798553,122.956039 
	C238.344681,123.079002 230.882141,123.186249 223.434219,122.944992 
	C219.672791,122.823151 216.976089,123.780769 215.390778,127.713196 
	C214.235153,123.503510 215.712753,121.722275 220.585449,121.892815 
	C230.396561,122.236206 240.228409,121.987274 250.517746,121.933624 
z"/>
<path fill="#7CB442" opacity="1.000000" stroke="none" 
	d="
M407.404877,113.829498 
	C406.758392,108.116768 405.946228,102.183563 406.279785,96.315491 
	C406.489624,92.623764 410.009644,94.274483 412.648987,94.610245 
	C411.515564,94.938553 410.048187,95.075310 407.723816,95.291939 
	C407.723816,101.373680 407.723816,107.505127 407.404877,113.829498 
z"/>
<path fill="#A4D177" opacity="1.000000" stroke="none" 
	d="
M414.882141,71.533997 
	C413.017456,66.273972 408.149414,63.913879 402.463806,66.363678 
	C401.337952,66.848770 400.433990,68.744568 400.165436,70.132568 
	C399.643188,72.831833 399.643646,75.632225 399.160217,78.711678 
	C398.892822,74.560501 398.892822,70.088379 398.892822,65.307068 
	C404.301239,65.307068 409.363586,65.307068 414.956604,65.307068 
	C414.956604,67.233536 414.956604,69.161430 414.882141,71.533997 
z"/>
<path fill="#A5D970" opacity="1.000000" stroke="none" 
	d="
M398.565338,78.954559 
	C392.821838,80.807373 392.561493,85.509460 392.906250,90.921394 
	C393.209747,95.685608 392.707550,100.501152 392.358490,105.655182 
	C392.155823,97.168961 392.155823,88.321579 392.155823,79.007622 
	C394.278870,79.007622 396.195862,79.007622 398.565338,78.954559 
z"/>
<path fill="#999FAF" opacity="1.000000" stroke="none" 
	d="
M126.450638,350.997162 
	C126.516075,350.795593 126.683746,350.606873 126.641563,350.505798 
	C126.508675,350.187561 126.296989,349.902222 126.115814,349.604156 
	C126.162521,355.287079 126.116951,360.975250 126.441711,366.642242 
	C126.466095,367.067871 129.133621,367.342072 130.234177,367.648254 
	C128.755417,366.422089 126.757195,365.318237 126.631264,364.031158 
	C126.211342,359.739563 126.462715,355.382263 126.450638,350.997162 
z"/>
<path fill="#A4D177" opacity="1.000000" stroke="none" 
	d="
M383.496521,121.979263 
	C381.986237,123.676041 379.292755,125.060310 378.272217,127.231094 
	C377.175415,129.563904 377.649170,132.635086 377.175079,135.707657 
	C376.912506,131.502228 376.912506,126.973213 376.912506,122.013008 
	C379.251740,122.013008 381.150757,122.013008 383.496521,121.979263 
z"/>
<path fill="#999FAF" opacity="1.000000" stroke="none" 
	d="
M126.492867,318.564270 
	C126.537148,318.159241 126.599052,317.744019 126.660965,317.328766 
	C126.330193,317.501587 125.697815,317.720917 125.716171,317.839844 
	C125.868774,318.828522 126.141441,319.798676 126.377838,320.774445 
	C126.479492,320.700256 126.602547,320.642944 126.677475,320.547729 
	C126.775253,320.423553 126.834869,320.269348 126.693100,319.757874 
	C126.488159,319.151093 126.499893,318.873230 126.492867,318.564270 
z"/>
<path fill="#A4D177" opacity="1.000000" stroke="none" 
	d="
M376.745422,135.995392 
	C376.779541,136.170395 376.552246,136.433548 376.104553,136.838470 
	C376.084076,136.681335 376.284027,136.382446 376.745422,135.995392 
z"/>
<path fill="#A5D970" opacity="1.000000" stroke="none" 
	d="
M391.736664,106.965622 
	C391.773132,107.132118 391.553864,107.408134 391.118774,107.838974 
	C391.095612,107.687592 391.288269,107.381371 391.736664,106.965622 
z"/>
<path fill="#999FAF" opacity="1.000000" stroke="none" 
	d="
M377.681091,295.462952 
	C377.636292,295.368408 377.350037,295.544189 377.377197,295.634186 
	C377.404358,295.724182 377.725861,295.557495 377.681091,295.462952 
z"/>
<path fill="#999FAF" opacity="1.000000" stroke="none" 
	d="
M126.178391,331.594421 
	C126.257774,331.692078 126.546028,331.598907 126.546028,331.598907 
	C126.546028,331.598907 126.487495,331.296356 126.372597,331.298828 
	C126.257698,331.301300 126.099007,331.496735 126.178391,331.594421 
z"/>
<path fill="#FFFFFF" opacity="1.000000" stroke="none" 
	d="
M311.000519,178.000580 
	C311.000763,188.428711 311.000763,198.356949 311.000763,208.644211 
	C305.978271,208.644211 301.416687,208.644211 296.424377,208.644211 
	C296.424377,192.354355 296.424377,176.039993 296.424377,159.359726 
	C301.023041,159.359726 305.585175,159.359726 311.000275,159.359726 
	C311.000275,165.370361 311.000275,171.435516 311.000519,178.000580 
z"/>
<path fill="#FFFFFF" opacity="1.000000" stroke="none" 
	d="
M222.982971,205.730087 
	C222.129837,207.125778 221.336761,208.776901 220.424347,208.845734 
	C216.504456,209.141403 212.549484,208.971954 208.311249,208.971954 
	C208.311249,192.213470 208.311249,176.020798 208.311249,159.412750 
	C213.033737,159.412750 217.712677,159.412750 222.988129,159.412750 
	C222.988129,174.809937 222.988129,190.033707 222.982971,205.730087 
z"/>
</svg>